<?xml version="1.0" encoding="UTF-8"?><svg xmlns="http://www.w3.org/2000/svg" viewBox="0 0 574.89 574.89"><defs><style>.d{isolation:isolate;opacity:.67;}.d,.e,.f,.g{fill-rule:evenodd;}.d,.f{fill:#fff;}.e{fill:#171717;}</style></defs><g id="a"/><g id="b"><g id="c"><path class="e" d="M287.45,0c158.75,0,287.45,128.69,287.45,287.45s-128.69,287.45-287.45,287.45S0,446.2,0,287.45,128.69,0,287.45,0Z"/><path class="g" d="M286.9,121.61c91.59,0,165.83,74.25,165.83,165.83s-74.25,165.83-165.83,165.83-165.83-74.25-165.83-165.83S195.31,121.61,286.9,121.61Z"/><path class="d" d="M291.96,49.17c-2.28-2.1-3.46-2.14-3.66-2.14s-1.38,.04-3.66,2.14c-2.34,2.16-5.15,5.88-8.16,11.62-6.03,11.46-11.79,28.79-16.76,51.14-5.59,25.14-10.01,55.87-12.79,90.26,13.46,6.51,27.3,13.59,41.38,21.19,14.08-7.6,27.92-14.68,41.38-21.2-2.79-34.4-7.2-65.12-12.79-90.26-4.97-22.36-10.74-39.68-16.76-51.14-3.02-5.74-5.82-9.46-8.16-11.62Zm-15.44,180.67c-10.34-5.49-20.53-10.69-30.5-15.57-.76,11.07-1.35,22.49-1.75,34.18,5.28-3.16,10.63-6.31,16.05-9.44,5.42-3.13,10.83-6.19,16.2-9.17Zm-40.46-32.82c8.08-94.32,28.42-161.25,52.24-161.25s44.16,66.92,52.24,161.24c85.77-40.17,153.94-56.02,165.85-35.41,11.91,20.62-35.91,71.68-113.61,125.83,77.69,54.15,125.52,105.22,113.61,125.83-11.91,20.62-80.08,4.76-165.85-35.41-8.08,94.32-28.42,161.24-52.24,161.24s-44.16-66.93-52.24-161.25c-85.77,40.17-153.94,56.03-165.85,35.41-11.91-20.61,35.91-71.68,113.61-125.83-77.69-54.15-125.52-105.22-113.61-125.83,11.91-20.62,80.08-4.76,165.85,35.41Zm-42.33,83.61c-28.41-19.61-52.84-38.8-71.83-56.21-16.89-15.48-29.02-29.14-35.94-40.08-3.47-5.49-5.29-9.77-5.99-12.88-.68-3.02-.12-4.06-.03-4.23h0c.1-.17,.72-1.17,3.68-2.09,3.04-.95,7.67-1.51,14.16-1.26,12.95,.52,30.85,4.19,52.7,11.06,24.58,7.73,53.42,19.27,84.62,34.06-1.09,14.9-1.87,30.42-2.32,46.4-13.63,8.38-26.69,16.82-39.06,25.22Zm0,13.63c-28.41,19.61-52.84,38.8-71.83,56.21-16.89,15.48-29.02,29.13-35.94,40.08-3.47,5.48-5.29,9.77-5.99,12.88-.68,3.02-.12,4.06-.03,4.23,.1,.17,.72,1.17,3.68,2.09,3.04,.95,7.67,1.52,14.16,1.26,12.95-.52,30.85-4.19,52.7-11.06,24.58-7.73,53.42-19.27,84.62-34.06-1.09-14.9-1.87-30.42-2.32-46.4-13.63-8.38-26.69-16.82-39.06-25.22Zm38.76,11.8c-9.93-6.2-19.53-12.42-28.75-18.61,9.22-6.19,18.82-12.41,28.75-18.61-.1,6.14-.15,12.35-.15,18.61s.05,12.47,.15,18.61Zm11.39,7.01c-.19-8.42-.29-16.97-.29-25.63s.1-17.21,.29-25.63c7.2-4.37,14.56-8.73,22.06-13.06,7.51-4.33,14.96-8.52,22.36-12.57,7.39,4.05,14.85,8.24,22.36,12.57,7.5,4.33,14.86,8.69,22.07,13.07,.19,8.42,.29,16.97,.29,25.62s-.1,17.2-.29,25.62c-7.2,4.38-14.56,8.74-22.07,13.07-7.51,4.33-14.96,8.52-22.36,12.57-7.4-4.05-14.85-8.24-22.36-12.57-7.5-4.33-14.86-8.69-22.06-13.06Zm.38,13.37c.41,11.7,1,23.11,1.75,34.18,9.97-4.88,20.16-10.08,30.5-15.57-5.37-2.99-10.78-6.05-16.2-9.17-5.42-3.13-10.78-6.28-16.05-9.44Zm44.03,25.06c-14.08,7.6-27.92,14.68-41.38,21.2,2.79,34.4,7.2,65.12,12.79,90.26,4.97,22.36,10.74,39.68,16.76,51.14,3.02,5.74,5.82,9.46,8.16,11.62,2.28,2.1,3.46,2.14,3.66,2.14s1.38-.04,3.66-2.14c2.34-2.16,5.15-5.88,8.16-11.62,6.03-11.46,11.79-28.79,16.76-51.14,5.59-25.14,10.01-55.86,12.79-90.26-13.46-6.51-27.3-13.59-41.38-21.2Zm53.19,14.38c31.2,14.79,60.03,26.33,84.61,34.06,21.86,6.88,39.76,10.55,52.7,11.06,6.49,.26,11.11-.3,14.16-1.26,2.97-.93,3.59-1.93,3.68-2.09,.1-.17,.65-1.2-.03-4.23-.7-3.11-2.52-7.39-5.99-12.88-6.92-10.95-19.05-24.6-35.94-40.08-18.99-17.41-43.41-36.6-71.83-56.21-12.37,8.39-25.43,16.83-39.05,25.21-.45,15.99-1.24,31.51-2.32,46.41Zm41.38-85.25c28.42-19.61,52.84-38.8,71.83-56.21,16.89-15.48,29.02-29.14,35.94-40.08,3.47-5.49,5.29-9.77,5.99-12.88,.68-3.03,.12-4.06,.03-4.23-.1-.17-.72-1.17-3.68-2.09-3.04-.95-7.67-1.51-14.16-1.26-12.95,.52-30.85,4.19-52.7,11.06-24.58,7.73-53.41,19.27-84.61,34.06,1.09,14.9,1.87,30.42,2.32,46.41,13.63,8.38,26.68,16.82,39.05,25.21Zm-38.76-11.79c9.93,6.2,19.53,12.42,28.74,18.61-9.22,6.19-18.81,12.41-28.74,18.61,.1-6.14,.15-12.35,.15-18.61s-.05-12.46-.15-18.61Zm-11.77-20.39c-.41-11.7-1-23.11-1.75-34.19-9.98,4.88-20.16,10.08-30.51,15.58,5.37,2.99,10.78,6.04,16.2,9.17,5.43,3.13,10.78,6.28,16.06,9.44Zm-1.75,112.18c-9.98-4.88-20.16-10.08-30.51-15.58,5.37-2.99,10.78-6.05,16.2-9.17,5.43-3.13,10.78-6.28,16.06-9.44-.41,11.7-1,23.12-1.75,34.19Z"/><path class="f" d="M127.44,216.97c9.77,0,17.7,7.93,17.7,17.71s-7.92,17.71-17.7,17.71-17.7-7.93-17.7-17.71,7.92-17.71,17.7-17.71Z"/><path class="f" d="M408.72,156.33c9.78,0,17.71,7.93,17.71,17.71s-7.93,17.71-17.71,17.71-17.71-7.93-17.71-17.71,7.93-17.71,17.71-17.71Z"/><path class="f" d="M252.64,434.25c9.78,0,17.71,7.92,17.71,17.7s-7.93,17.7-17.71,17.7-17.71-7.92-17.71-17.7,7.93-17.7,17.71-17.7Z"/><path class="f" d="M287.32,257.34c16.56,0,29.98,13.42,29.98,29.98s-13.42,29.98-29.98,29.98-29.98-13.42-29.98-29.98,13.42-29.98,29.98-29.98Z"/></g></g></svg>