<svg xmlns="http://www.w3.org/2000/svg" width="14" height="14">
    <path fill-rule="evenodd" fill="#FD8176" d="M11.996 2.112c1.235 1.262 2.003 3.858 2.003 4.887 0 3.86-3.14 7-7 7-1.029 0-3.624-.768-4.888-2.003.799-.017.549-.024.349-.044-.2-.019-.26-.044-.16-.065C.767 10.624 0 8.901 0 6.999A7.006 7.006 0 0 1 6.999 0c1.902 0 3.625.767 4.888 2.3.02-.1.046-.03.065.16.019.19.026.45.044-.348zm.003 4.887c0-1.017-.309-1.629-.833-2.753l-6.92 6.92c1.124.525 1.736.834 2.753.834 2.757 0 5-2.244 5-5.001zm-10 0c0 1.171.309 1.963.834 2.753l6.919-6.92c-.79-.524-1.582-.833-2.753-.833-2.757 0-5 2.243-5 5z"/>
</svg>
