<svg xmlns="http://www.w3.org/2000/svg" width="27" height="20">
    <path fill-rule="evenodd" fill="#83818B" d="M10.51 1.422C10.3.936 10.64.46 9.805.1 7.947.315 6.14.88 4.431 1.679 1.43 6.773.123 11.747.582 16.645a21.535 21.535 0 0 0 6.587 3.353 16.262 16.262 0 0 0 1.412-2.309c-.77-.29-.901-.279-2.221-1.07.185-.141.364-.283.537-.425 4.773 1.989 9.005 1.989 13.823 0-.472.147-.288.289-.105.427-.709.829-1.453.784-2.225 1.075.405.807.878 1.577 1.411 2.304 2.372-.726 4.6-1.86 6.588-3.353.536-5.678-.927-10.247-3.873-14.976C20.807.878 19.2.315 17.147.1c-.235.314-.501.871-.687 1.322a20.045 20.045 0 0 0-5.95 0zM9.16 13.636c-1.285 0-2.339-1.187-2.339-2.644S7.852 8.339 9.16 8.339s2.353 1.187 2.341 2.646c-.012 1.46-1.033 2.651-2.341 2.651zm8.646-5.297c1.308 0 2.353 1.187 2.339 2.646-.014 1.46-1.031 2.651-2.339 2.651-1.284 0-2.338-1.187-2.338-2.644s1.03-2.653 2.338-2.653z"/>
</svg>
