<svg xmlns="http://www.w3.org/2000/svg" width="26" height="27">
    <path fill-rule="evenodd" fill="#828189" d="M12.832.975C5.561.975 0 6.636 0 14.92c0 5.61 3.658 10.235 8.885 12.03.671.79.906-.301.906-.65 0-.333-.015-2.172-.015-3.301 0 0-3.67.807-4.44-1.602 0 0-.598-1.564-1.457-1.967 0 0-1.201-.844.083-.828 0 0 1.306.107 2.024 1.387 1.148 2.651 3.594 1.478 3.821 1.123.121-.86.461-1.456.839-1.811-2.93-.334-5.887-.769-5.887-5.94 0-1.479.399-2.22 1.237-3.166-.136-.35-.582-1.79.137-3.65 1.095-.35 3.616 1.451 3.616 1.451 1.049-.301 2.176-.457 3.661-.457.748 0 1.875.156 2.923.457 0 0 2.522-1.806 3.617-1.451.718 1.865.273 3.3.92 3.65.055.951.569 1.693.569 3.166 0 5.187-3.088 5.601-6.018 5.94.483.424.891 1.231.891 2.494 0 1.812-.015 4.053-.015 4.494 0 .349.241 1.341.907.65 5.241-1.784 8.795-6.409 8.795-12.019 0-8.284-5.897-13.945-13.167-13.945z"/>
</svg>
