<?xml version="1.0" encoding="utf-8"?>
<!-- Generator: Adobe Illustrator 26.2.1, SVG Export Plug-In . SVG Version: 6.00 Build 0)  -->
<svg version="1.1" id="Layer_1" xmlns="http://www.w3.org/2000/svg" xmlns:xlink="http://www.w3.org/1999/xlink" x="0px" y="0px"
	 viewBox="0 0 10 10" style="enable-background:new 0 0 10 10;" xml:space="preserve">
<style type="text/css">
	.st0{fill:#FF2F2F;}
</style>
<path class="st0" d="M1.8,1.2c-2.1,1.8-2.4,4.9-0.6,7c1.8,2.1,4.9,2.4,7,0.6c2.1-1.8,2.4-4.9,0.6-7C7-0.3,3.9-0.6,1.8,1.2z M2.1,7.4
	C0.9,6,1,3.9,2.1,2.5l4.8,5.7C5.4,9.2,3.3,8.9,2.1,7.4z M7.9,7.5L3.1,1.8c1.6-0.9,3.6-0.6,4.8,0.8C9.1,4,9,6.1,7.9,7.5z"/>
</svg>
