<?xml version="1.0" encoding="UTF-8"?><svg xmlns="http://www.w3.org/2000/svg" viewBox="0 0 21.8 21.8"><defs><style>.d{fill:#83818b;}</style></defs><g id="a"/><g id="b"><g id="c"><path class="d" d="M10.9,0C4.9,0,0,4.9,0,10.9s4.9,10.9,10.9,10.9,10.9-4.9,10.9-10.9S16.9,0,10.9,0Zm-3.1,14.9c-2.2,0-4-1.8-4-4s1.8-4,4-4,4,1.8,4,4-1.8,4-4,4Zm6.5-.2c-1.1,0-2-1.7-2-3.8s.9-3.8,2-3.8,2,1.7,2,3.8c-.1,2.1-.9,3.8-2,3.8Zm3.1-.4c-.4,0-.7-1.5-.7-3.4s.3-3.4,.7-3.4,.7,1.5,.7,3.4c0,1.9-.3,3.4-.7,3.4Z"/></g></g></svg>