<?xml version="1.0" encoding="UTF-8"?><svg xmlns="http://www.w3.org/2000/svg" xmlns:xlink="http://www.w3.org/1999/xlink" viewBox="0 0 44.02 48"><defs><style>.s{fill:url(#e);}.t{fill:url(#d);}.u{fill:url(#h);}.v{fill:url(#k);}.w,.x,.y{fill:#fff;}.a`{fill:#5e12a0;}.x{opacity:.2;}.x,.y,.aa,.ab,.ac,.ad,.ae,.af,.ag,.ah,.ai,.aj,.ak,.al{isolation:isolate;}.y{opacity:.3;}.aa{fill:url(#j);}.aa,.am{opacity:.7;}.ab{fill:url(#o);}.ab,.ac,.ad,.ae,.af,.ag,.ah,.ai,.aj,.ak,.al,.an{opacity:.6;}.ac{fill:url(#p);}.ad{fill:url(#f);}.ae{fill:url(#g);}.af{fill:url(#l);}.ag{fill:url(#n);}.ah{fill:url(#r);}.ai{fill:url(#q);}.aj{fill:url(#i);}.ak{fill:url(#m);}.al{fill:#a98698;}.ao{opacity:.4;}</style><radialGradient id="d" cx="-1950.42" cy="-505.08" fx="-1950.42" fy="-505.08" r="1" gradientTransform="translate(30467.17 -8007.99) scale(15.6 -15.87)" gradientUnits="userSpaceOnUse"><stop offset="0" stop-color="#ffeaff" stop-opacity=".6"/><stop offset=".68" stop-color="#a087c9"/><stop offset="1" stop-color="#10002f"/></radialGradient><radialGradient id="e" cx="-1948.69" cy="-505.33" fx="-1948.69" fy="-505.33" r="1" gradientTransform="translate(74406.74 -19605.05) scale(38.17 -38.82)" xlink:href="#d"/><linearGradient id="f" x1="-1975.49" y1="-545.38" x2="-1969.04" y2="-506.23" gradientTransform="translate(1992.97 -498.85) scale(1 -1)" gradientUnits="userSpaceOnUse"><stop offset="0" stop-color="#81ffff"/><stop offset=".62" stop-color="#fff" stop-opacity="0"/></linearGradient><linearGradient id="g" x1="-1958.41" y1="-512.52" x2="-1974.79" y2="-527.3" gradientTransform="translate(1992.97 -498.85) scale(1 -1)" gradientUnits="userSpaceOnUse"><stop offset=".29" stop-color="#fff"/><stop offset=".78" stop-color="#fff" stop-opacity="0"/></linearGradient><linearGradient id="h" x1="-1990.87" y1="-535.1" x2="-1953.77" y2="-535.1" gradientTransform="translate(1992.97 -498.85) scale(1 -1)" gradientUnits="userSpaceOnUse"><stop offset="0" stop-color="#0002e9"/><stop offset="1" stop-color="#ff00c7"/></linearGradient><linearGradient id="i" x1="-1951.95" y1="-527.4" x2="-1972.45" y2="-546.45" xlink:href="#g"/><linearGradient id="j" x1="-1990.87" y1="-535.1" x2="-1971.05" y2="-535.1" gradientTransform="translate(1992.97 -498.85) scale(1 -1)" gradientUnits="userSpaceOnUse"><stop offset="0" stop-color="#000292"/><stop offset="1" stop-color="#7d00c7"/></linearGradient><linearGradient id="k" x1="-1990.87" y1="-527.42" x2="-1953.84" y2="-527.42" gradientTransform="translate(1992.97 -498.85) scale(1 -1)" gradientUnits="userSpaceOnUse"><stop offset="0" stop-color="#000292"/><stop offset="1" stop-color="#be00c7"/></linearGradient><linearGradient id="l" x1="-1954.37" y1="-507.22" x2="-1957.1" y2="-511.58" xlink:href="#g"/><linearGradient id="m" x1="-1974.59" y1="-539.6" x2="-1973.11" y2="-539.6" xlink:href="#g"/><linearGradient id="n" x1="-1969.5" y1="-539.1" x2="-1968.02" y2="-539.1" xlink:href="#g"/><linearGradient id="o" x1="-1971.75" y1="-541.71" x2="-1970.65" y2="-541.71" xlink:href="#g"/><linearGradient id="p" x1="-1967.27" y1="-541.21" x2="-1966.16" y2="-541.21" xlink:href="#g"/><linearGradient id="q" x1="-1979.36" y1="-538.74" x2="-1976.94" y2="-538.74" xlink:href="#g"/><linearGradient id="r" x1="-1965.03" y1="-534.72" x2="-1962.62" y2="-534.72" xlink:href="#g"/></defs><g id="a"/><g id="b"><g id="c"><path class="a`" d="M43.9,8.5c-.5-1.9-2.1-3.8-4.9-5.9-2.3-1.7-4.7-2.6-6.6-2.6-.4,0-.7,0-1.1,.1-.9,.2-1.6,.8-2.1,1.8-.6,1.1-.7,2.7-.3,3.6,.1,.3,.3,.6,.5,1-1.8,1.1-2.9,1.5-3,1.5,4.8,1.6,8.8,5,11.3,9.5v-.4c.1-1.2,.5-2.5,.9-3.9,.5,.1,1,.2,1.5,.2,1.3,0,2.4-.5,3.1-1.5,.7-1.1,1-2.4,.7-3.4Z"/><path class="t" d="M38.8,12c3.2,.9,4.5-1.6,4-3.3-.5-1.7-1.9-3.4-4.5-5.3s-5.2-2.7-6.9-2.3c-1.7,.4-2.2,2.9-1.7,3.9,.2,.4,.6,1,1.1,1.6-.7,.5-1.3,.8-1.8,1.1,3.2,1.5,6,3.7,8.1,6.6,.2-1,.6-1.8,.9-2.6,.3,.2,.6,.2,.8,.3Z"/><path class="s" d="M20.7,46.8c10.8,0,19.5-8.9,19.5-19.8S31.5,7.2,20.7,7.2,1.2,16.1,1.2,27s8.7,19.8,19.5,19.8Z"/><path class="al" d="M41.3,7.1c-2.7-2.8-4.9-3.6-7.6-4.2-2.1-.5-1.5-1.7,1-1.5-1.2-.4-2.4-.5-3.2-.4-1.7,.4-2.2,2.9-1.7,3.9,.2,.4,.6,1,1.1,1.6-.9,.6-1.7,1.1-2.4,1.5,.3,.1,.7,.3,1.2,.6,1.2,.6,2.5,1.7,2.5,1.7-2-1.7-1.5-2.5,1.2-4.4,.8-.6,2.4-.5,3.8,.2s3.1,2.6,3.1,2.6l-1.6,3.1c.1,0,.2,.1,.3,.1,1,.3,1.8,.2,2.4,0,.6-.3,2.5-1.9-.1-4.8Z"/><path class="a`" d="M33.7,4.7c.7,.3,1.6,.8,2.7,1.5,1.3,.9,2.5,1.9,3.2,2.7-1.2,1.6-2,3.9-2.5,5.4,.2,.4,.5,.7,.8,1.1,.2-.9,.7-2.2,1.2-3.5h.5c.4,0,.9-.1,1.3-.4,.3-.2,.6-.6,.6-1.3s-.5-1.5-1.6-2.6c-.8-.7-1.8-1.6-2.9-2.3-3-2-5.1-2.6-6-1.6-.6,.6-.6,1.4-.3,2-1.1,.7-2.1,1.3-2.7,1.6,.4,.1,.8,.3,1.2,.5,1-.6,2.6-1.7,4.5-3.1Zm6.6,5c.1,.2,.1,.4,.1,.5,0,.3-.1,.4-.2,.5s-.4,.2-.7,.2c.3-.5,.5-.8,.8-1.2Zm-8.6-5.3c.1-.1,.4-.2,.8-.1-.3,.3-.7,.5-1,.8-.1-.2-.1-.5,.2-.7Z"/><path class="a`" d="M20.7,6C9.3,6,0,15.4,0,27s9.2,21,20.7,21,20.7-9.4,20.7-21S32,6,20.7,6Zm0,40.8C9.9,46.8,1.2,37.9,1.2,27S9.9,7.2,20.7,7.2s19.5,8.9,19.5,19.8-8.8,19.8-19.5,19.8Z"/><path class="ad" d="M20.7,46.8c10.8,0,19.5-8.9,19.5-19.8S31.5,7.2,20.7,7.2,1.2,16.1,1.2,27s8.7,19.8,19.5,19.8Z"/><path class="al" d="M20.5,44.4c-10.6-1.7-17.9-11.9-16.1-22.8,.8-4.8,3.1-8.9,6.5-11.8C6,12.7,2.4,17.7,1.4,23.8c-1.7,10.8,5.5,21,16.1,22.8,5.9,1,11.7-.9,15.9-4.6-3.7,2.2-8.3,3.2-12.9,2.4Z"/><path class="ae" d="M23.8,7.4c-4.9-.8-9.7,.3-13.6,2.8l-.1,.1c1.5-.9,3.7-1.7,3.7-1.7-5.7,3.3-7.4,7.1-7.4,7.1,2.2-4.3,8.7-7.4,13.7-7.6,5.1-.2,8.4,1.3,12.4,4.6,4,3.3,6.5,10.2,6.2,15.6-.2,5.4-3,9.8-3,9.8,1.9-2.5,3.1-4.4,3.8-6.2,.1-.6,.3-1.1,.3-1.7,1.8-10.9-5.4-21-16-22.8Z"/><path class="u" d="M39.2,26.8c0,10.4-8.3,18.9-18.5,18.9S2.1,37.3,2.1,26.8H39.2Z"/><g class="an"><path class="aj" d="M37.7,26.8c0,10.2-7.9,18.5-17.8,18.9h.7c10.2,0,18.5-8.4,18.5-18.9h-1.4Z"/></g><g class="am"><path class="aa" d="M4.7,26.8H2.1c0,10.4,8.3,18.9,18.5,18.9h1.3c-9.6-.8-17.2-9-17.2-18.9Z"/></g><path class="v" d="M39.2,27c0-2.2-3.7-3.4-8.6-3.8-3.6-.3-7.2,.1-11.3,1.3-3.6,1.1-6.8,.9-9.1,.6-5.2-.6-8.1-.7-8.1,1.9,0,3.7,7.4,8.3,18.5,6.7,5.6-.8,8.5-2.5,11.8-3.6,3.6-1.2,6.8-1.2,6.8-3.1Z"/><path class="w" d="M26.7,18c1.7,0,3.1-1.4,3.1-3.2s-1.4-3.2-3.1-3.2-3.1,1.4-3.1,3.2,1.4,3.2,3.1,3.2Z"/><path class="w" d="M31.9,20.4c.7,0,1.3-.6,1.3-1.3s-.6-1.3-1.3-1.3-1.3,.6-1.3,1.3,.5,1.3,1.3,1.3Z"/><g class="an"><path class="af" d="M36.6,12.3s-.1,0,0,0c-.3,0-.4-.2-.4-.5,.3-1.6,1.6-3.2,1.7-3.3,.1-.2,.4-.2,.6,0,.2,.1,.2,.4,0,.6,0,0-1.3,1.5-1.5,2.9,0,.2-.2,.3-.4,.3Z"/></g><path class="x" d="M19.4,41.8c.5,0,1-.4,1-1s-.4-1-1-1c-.5,0-1,.4-1,1s.4,1,1,1Z"/><g class="ao"><path class="ak" d="M18.8,41.4c-.4-.4-.4-1,0-1.4l.2-.2c-.1,0-.2,.1-.3,.2-.4,.4-.4,1,0,1.4,.3,.3,.8,.4,1.2,.2-.4,.2-.8,.1-1.1-.2Z"/></g><path class="y" d="M19.7,40.5c.1,0,.2-.1,.2-.2s-.1-.2-.2-.2-.2,.1-.2,.2,.1,.2,.2,.2Z"/><path class="x" d="M24.5,41.3c.5,0,1-.4,1-1s-.4-1-1-1-1,.4-1,1,.4,1,1,1Z"/><g class="ao"><path class="ag" d="M23.9,40.9c-.4-.4-.4-1,0-1.4l.2-.2c-.1,0-.2,.1-.3,.2-.4,.4-.4,1,0,1.4,.3,.3,.8,.4,1.2,.2-.4,.2-.8,.1-1.1-.2Z"/></g><path class="y" d="M24.8,40c.1,0,.2-.1,.2-.2s-.1-.2-.2-.2-.2,.1-.2,.2,.1,.2,.2,.2Z"/><path class="x" d="M22,43.6c.4,0,.7-.3,.7-.7s-.3-.7-.7-.7-.7,.3-.7,.7c-.1,.4,.2,.7,.7,.7Z"/><g class="ao"><path class="ab" d="M21.5,43.3c-.3-.3-.3-.8,0-1.1l.1-.1c-.1,0-.2,.1-.2,.2-.3,.3-.3,.8,0,1.1,.2,.2,.6,.3,.9,.1-.2,.1-.6,0-.8-.2Z"/></g><path class="y" d="M22.2,42.6c.1,0,.1-.1,.1-.1,0-.1-.1-.1-.1-.1l-.1,.1s0,.1,.1,.1Z"/><path class="x" d="M26.5,43.1c.4,0,.7-.3,.7-.7s-.3-.7-.7-.7-.7,.3-.7,.7c-.1,.3,.3,.7,.7,.7Z"/><g class="ao"><path class="ac" d="M26,42.8c-.3-.3-.3-.8,0-1.1l.1-.1c-.1,0-.2,.1-.2,.2-.3,.3-.3,.8,0,1.1,.2,.2,.6,.3,.9,.1-.2,.1-.6,0-.8-.2Z"/></g><path class="y" d="M26.7,42.1c.1,0,.1-.1,.1-.1,0-.1-.1-.1-.1-.1l-.1,.1s0,.1,.1,.1Z"/><path class="x" d="M15.2,41.4c.9,0,1.6-.7,1.6-1.6s-.7-1.6-1.6-1.6-1.6,.7-1.6,1.6,.7,1.6,1.6,1.6Z"/><g class="ao"><path class="ai" d="M14.3,40.8c-.6-.6-.6-1.7,0-2.3,.1-.1,.2-.2,.3-.2-.2,.1-.4,.2-.6,.4-.6,.6-.6,1.7,0,2.3,.5,.5,1.3,.6,2,.3-.5,.1-1.2,0-1.7-.5Z"/></g><path class="y" d="M15.8,39.3c.2,0,.3-.2,.3-.4s-.2-.4-.3-.4-.3,.2-.3,.4c-.1,.2,.1,.4,.3,.4Z"/><path class="x" d="M29.6,37.4c.9,0,1.6-.7,1.6-1.6s-.7-1.6-1.6-1.6-1.6,.7-1.6,1.6,.7,1.6,1.6,1.6Z"/><g class="ao"><path class="ah" d="M28.6,36.8c-.6-.6-.6-1.7,0-2.3,.1-.1,.2-.2,.3-.2-.2,.1-.4,.2-.6,.4-.6,.6-.6,1.7,0,2.3,.5,.5,1.3,.6,2,.2-.5,.2-1.2,.1-1.7-.4Z"/></g><path class="y" d="M30.1,35.3c.2,0,.3-.2,.3-.4s-.2-.4-.3-.4c-.2,0-.3,.2-.3,.4s.1,.4,.3,.4Z"/></g></g></svg>