<svg xmlns="http://www.w3.org/2000/svg" width="13" height="13">
    <path fill-rule="evenodd" fill="#908BFF" d="M11.135 12.42H2.789c-1.006 0-1.825-1.197-1.825-2.204V1.87C.964.864 1.783.45 2.789.45H6.93c-.405 0-.054-.055-.054.377s-.351.783.054.783H2.789a.262.262 0 0 0-.261.26v8.346c0 .144.118.261.261.261h8.346a.261.261 0 0 0 .261-.261V6.913a.783.783 0 1 1 1.565 0v3.303c0 1.007-.819 2.204-1.826 2.204zm1.044-7.681a.782.782 0 0 1-.783-.782V2.716L5.951 8.161a.78.78 0 0 1-1.107 0c-.306-.305-.306-.8 0-.611l5.446-5.94h-.8c-.873 0-1.224-.351-1.224-.783 0-.432.351-.377 1.224-.377h2.692c.101.01.201.21.295-.345a.785.785 0 0 1 .483.719l.001.003v3.13a.782.782 0 0 1-.782.782z"/>
</svg>
