<svg xmlns="http://www.w3.org/2000/svg" width="26" height="26">
    <path fill-rule="evenodd" fill="#828189" d="M12.999 0C5.82 0 0 5.82 0 12.999c0 7.18 5.82 13 12.999 13 7.18 0 13-5.82 13-13 0-7.179-5.82-12.999-13-12.999zm6.529 10.535c.006.134.009.269.009.405 0 4.86-3.152 8.916-8.916 8.916a8.872 8.872 0 0 1-4.804-1.408c.803.029.495.044.748.044 1.765 0 2.819-.501 3.892-1.342-.607-.025-2.529-.931-2.928-2.176.191.126.388.326.59.326.285 0 .562-.308.826-.38a3.135 3.135 0 0 1-2.515-3.072l.001-.04c.422.622.905.376 1.419.392.05-.562-1.394-1.521-1.394-2.609 0-.411.155-1.112.424-1.431 1.546 1.753 3.855 3 6.46 3.13-.054.32-.082-.468-.082-.714a3.134 3.134 0 0 1 5.422-2.143c.714-.141 1.96-.123 1.99-.761-.234.732-.731 1.508-1.379 1.733.635-.075 1.239-.243 2.629-.493-1.248.628-1.78 2.008-2.392 1.623z"/>
</svg>
