<?xml version="1.0" encoding="UTF-8"?><svg xmlns="http://www.w3.org/2000/svg" xmlns:xlink="http://www.w3.org/1999/xlink" viewBox="0 0 32 32"><defs><style>.h{fill:url(#d);}.i{fill:url(#f);}.j{fill:none;}.k{fill:#fff;}.l{clip-path:url(#e);}.m{clip-path:url(#g);}</style><linearGradient id="d" x1="4.3" y1="30.91" x2="27.74" y2="9.05" gradientTransform="translate(0 36) scale(1 -1)" gradientUnits="userSpaceOnUse"><stop offset=".03" stop-color="#4d0ea6"/><stop offset="1" stop-color="#5e2ce3"/></linearGradient><clipPath id="e"><path class="j" d="M11.5,16.2c0,2.8,1.9,5.1,4.5,5.8,3.3-.1,5.9-2.7,5.9-6,0-2.8-1.9-5.1-4.5-5.8-3.2,.1-5.9,2.7-5.9,6"/></clipPath><linearGradient id="f" x1="-2650.82" y1="377.01" x2="-2650.77" y2="377.01" gradientTransform="translate(-351544.7 260157.28) rotate(151.59) scale(163.34)" gradientUnits="userSpaceOnUse"><stop offset="0" stop-color="#ffa9ff"/><stop offset="1" stop-color="#77daff"/></linearGradient><clipPath id="g"><path class="j" d="M20.1,11.7c.6,.5,1,1.2,1.3,1.9l-11,4.7c-.3-.7-.5-1.5-.5-2.3l-2.8,2.1-.1,3.2,4.6,.1,10.9-4.5,2.5-3.4-.2-2.8-4.7,1Z"/></clipPath></defs><g id="a"/><g id="b"><g id="c"><circle class="h" cx="16" cy="16" r="16"/><g><path class="k" d="M21.9,16c0,3.3-2.7,6-6,6s-6-2.7-6-6,2.7-6,6-6,6,2.7,6,6"/><g class="l"><polygon class="i" points="25 17.9 13.9 24 9.4 13.6 18.9 8.7 25 17.9"/></g><g class="m"><path class="k" d="M9.6,21.1c-.9,0-2.2,0-2.5-.7-.5-1,1.1-2.4,2-3.2,1.3-1.1,3.3-2.3,5.7-3.5,2.5-1.1,4.7-1.9,6.3-2.2,1.2-.2,3.1-.4,3.6,.6s-.9,2.3-1.8,3.1c-1.3,1.1-3.3,2.3-5.7,3.5-2.5,1.1-4.7,1.9-6.3,2.2-.4,.2-.8,.2-1.3,.2m12-8.2c-.3,0-.6,0-1,.1-1.4,.2-3.2,.9-5.3,1.8-2.1,1-3.7,2-4.8,2.9-1,.9-1.2,1.5-1.1,1.7,.1,.2,.7,.5,2,.3,1.4-.2,3.2-.9,5.3-1.8,2.1-1,3.7-2,4.8-2.9,1-.9,1.2-1.5,1.1-1.7,0-.2-.4-.4-1-.4"/></g></g></g></g></svg>